Patient4_TMGait_0pt4_02_left_32_EMG.mot
version=1
nRows=13
nColumns=33
inDegrees=no
endheader
time	1LAddLong	2LGlutMax	3LGlutMed	4LIliopsoas	5LSemiMemb	6LBicFemLong	7LRecFem	8LVastMed	9LVastLat	10LGasMed	11LTibAnt	12lTibPost	13LPeroneusLong	14LSol	15LExtDigLong	16LFlexDigLong	17RAddLong	18RGlutMax	19RGlutMed	20RIliopsoas	21RSemiMemb	22RBicFemLong	23RRecFem	24RVastMed	25RVastLat	26RGasMed	27RTibAnt	28RTibPost	29RPeroneusLong	30RSol	31RExtDigLong	32RFlexDigLong
42.84	0.002594	-0.10971	0.027924	-0.013885	-0.018768	0.050049	0.2652	0.00885	-0.16296	-0.043335	0.023651	-0.004425	-0.047913	-0.042114	-0.22629	0.007019	-0.009155	0.16953	0.62622	0.12543	0.094147	-0.049744	0.19989	0.13626	-0.70053	0.008698	0.10696	-0.006561	0.36697	-0.023041	-0.002747	0.000916
42.841	-0.022125	-0.14206	0.038147	-0.008392	0.001526	0.053406	0.2536	0.002136	-0.16174	-0.037384	-0.041962	-0.006409	-0.021973	-0.019531	0.003357	0.009003	0.003204	0.13412	-0.046082	0.19363	0.021973	-0.038757	0.22339	-0.091553	-1.0664	0.003967	-0.3392	-0.001221	-1.5715	0.03418	-0.000458	-0.001373
42.842	0.000458	-0.10376	0.03006	-0.010071	0.010376	0.036316	0.242	0.00946	-0.12787	-0.03952	-0.055237	0.002899	0.043335	-0.012665	0.35706	0.014954	0.014038	0.21881	-0.08255	0.091705	-0.037079	-0.05188	0.30472	-0.36713	-0.93674	0.002594	-0.24994	-0.001068	-0.19119	0.072784	-0.001678	-0.001221
42.843	-0.005798	-0.11231	0.027161	0.016022	0.018311	0.041046	0.22461	0.014038	-0.1326	-0.054779	-0.052032	-0.002441	0.083008	0.013885	-0.49377	0.020294	0.03067	0.24094	-0.22827	-0.004578	-0.098724	-0.024719	0.16571	-0.41962	-0.54596	-0.00473	0.071716	-0.005035	-0.030365	0.010376	0	-0.004425
42.844	-0.006409	-0.11887	0.001221	0.014343	-0.027466	0.028229	0.20477	0.006104	-0.13321	-0.030518	0.028229	0.001526	0.02182	-0.00885	-0.11551	0.006866	0.026245	0.14893	-0.13458	-0.02594	-0.10574	-0.012665	-0.22049	-0.19959	-0.35584	0.005341	-0.007019	-0.000458	-0.53009	-0.10849	-0.000458	-0.003204
42.845	0.009613	-0.11414	0.028229	0.010223	-0.045166	-0.029755	0.18906	0.001526	-0.13962	0.003204	0.1207	-0.001678	-0.056763	-0.072021	0.016632	0.000916	0.001984	0.14847	0.085602	-0.087738	0.009613	-0.024261	-0.14618	0.093842	-0.18845	0.00473	-0.090179	-0.005646	-0.439	-0.020142	-0.003357	0.00061
42.846	0.013428	-0.14481	0.029449	0.000305	0.002441	-0.029602	0.17716	0.003052	-0.13321	-0.008698	0.15518	-0.003815	-0.022278	-0.15595	0.02243	0.010834	-0.000153	0.18082	-0.55939	-0.058594	-0.088501	-0.054169	-0.009308	0.031738	-0.1886	-0.001221	0.079498	0.001984	-0.003204	-0.036774	0.000153	-0.006561
42.847	0.010681	-0.10162	0.024872	0.01236	0.019073	-0.026398	0.14053	0.001831	-0.13611	-0.027466	0.19257	-0.001068	0.043945	-0.1358	0.49439	0.001831	-0.005798	0.25253	-0.27451	-0.080109	-0.06424	-0.095978	-0.090942	-0.14481	-0.15839	0.001221	-0.088196	-0.000458	-0.52109	-0.088348	-0.00351	-0.002136
42.848	0.012207	-0.089569	0.004425	0.003204	0.009766	0.010071	0.11398	0.004578	-0.14206	-0.032806	0.13901	-0.005951	0.045319	-0.11963	0.21866	-0.001373	-0.019989	0.31052	0.42236	-0.10864	-0.048981	-0.096741	0.005035	-0.081177	-0.036163	-0.007629	0.083466	-0.000458	-0.19974	0.036926	0.001831	-0.000763
42.849	0.00824	-0.13748	-0.013885	0.023499	-0.003967	0.027618	0.082092	0.007935	-0.13855	-0.043182	-0.016785	0.001526	0.05188	-0.055695	0.18753	0.003052	-0.023041	0.3421	0.57892	0.010681	-0.037842	-0.061951	0.06073	-0.085297	-0.022125	-0.009003	0.17258	-0.001221	0.087128	0.081329	-0.005035	0.010223
42.85	0.015564	-0.11612	-0.001221	0.005493	-0.005341	0.028076	0.077209	0.009308	-0.12894	-0.049744	-0.032959	-0.001221	0.068817	-0.037689	0.20264	-0.008698	-0.023346	0.34103	0.24262	0.20386	-0.02655	-0.049744	-0.00412	0.019073	-0.056915	0.003815	0.005493	0.001984	0.42725	-0.054626	-0.001221	0.004883
42.851	0.005951	-0.12405	-0.003357	0.007629	-0.017242	0.011749	0.041656	0.009613	-0.11688	-0.065308	-0.11337	-0.000153	0.13626	-0.040283	0.30487	0.004425	-0.020447	0.35095	0.33127	0.20966	-0.026703	-0.076294	0.066071	-0.037842	-0.074921	0.00885	-0.27802	-0.000153	0.28686	-0.074463	-0.000305	-0.000153
42.852	0.008087	-0.13031	-0.01297	0.021667	0.003815	0.020142	0.028076	0.007629	-0.11597	-0.051575	-0.075226	-0.004272	0.13443	-0.079041	-0.45044	-0.001221	-0.021362	0.34225	0.13092	0.088654	-0.027161	-0.070953	-0.121	0.10971	-0.075226	-0.003052	0.022125	0.000153	-2.011	0.046997	-0.009613	0.006256
